<svg viewBox="0 0 80 80" xmlns="http://www.w3.org/2000/svg" stroke="#1a1a2e" fill="none" stroke-linecap="round" stroke-linejoin="round">
  <!-- handle -->
  <rect x="36" y="46" width="8" height="26" rx="2" stroke-width="1.8" fill="#e8e4dc"/>
  <!-- bell shape -->
  <path d="M24 46 Q22 32 40 24 Q58 32 56 46 Z" stroke-width="1.8" fill="#e8e4dc"/>
  <!-- bell lip -->
  <path d="M22 46 Q40 52 58 46" stroke-width="1.6"/>
  <!-- clapper -->
  <line x1="40" y1="42" x2="40" y2="48" stroke-width="1.6"/>
  <circle cx="40" cy="50" r="3" stroke-width="1.4" fill="#e8e4dc"/>
  <!-- sound waves -->
  <path d="M14 30 Q10 36 14 42" stroke-width="1.4"/>
  <path d="M10 26 Q4 34 10 44" stroke-width="1.3"/>
  <path d="M66 30 Q70 36 66 42" stroke-width="1.4"/>
  <path d="M70 26 Q76 34 70 44" stroke-width="1.3"/>
  <!-- crack in bell -->
  <path d="M38 30 L40 36 L42 34 L44 40" stroke-width="1.1"/>
</svg>