<svg viewBox="0 0 80 80" xmlns="http://www.w3.org/2000/svg" stroke="#1a1a2e" fill="none" stroke-linecap="round" stroke-linejoin="round">
  <!-- arm with cast on it -->
  <path d="M22 68 L22 42 Q22 36 28 32 L44 28 Q50 26 54 30 L56 34" stroke-width="1.8" fill="none"/>
  <!-- plaster cast cylinder on forearm -->
  <path d="M22 68 L22 44 Q22 38 30 36 L46 32 Q54 30 58 36 L60 44 L58 68 Z" stroke-width="1.8" fill="#e8e4dc"/>
  <!-- signatures on cast -->
  <path d="M30 52 Q34 48 38 52" stroke-width="1.1"/>
  <path d="M42 50 Q46 46 48 50" stroke-width="1.1"/>
  <line x1="30" y1="60" x2="44" y2="58" stroke-width="0.9"/>
  <!-- impact stars at fist end -->
  <path d="M58 44 L64 38 L66 44 L72 42 L68 50 L74 52 L66 56 L70 64 L60 60 L58 68 L54 60 L48 64 L52 54 L44 52 L52 48 Z" stroke-width="1.3"/>
  <!-- crack line suggesting broken arm under cast -->
  <path d="M34 36 Q36 44 34 52" stroke-width="1.1" stroke-dasharray="2,2"/>
</svg>