<svg viewBox="0 0 80 80" xmlns="http://www.w3.org/2000/svg" stroke="#1a1a2e" fill="none" stroke-linecap="round" stroke-linejoin="round">
  <!-- cigar body -->
  <path d="M14 38 Q14 34 18 34 L62 34 Q68 34 68 38 Q68 46 62 46 L18 46 Q14 46 14 42 Z" stroke-width="1.8" fill="#e8e4dc"/>
  <!-- cigar band -->
  <rect x="46" y="34" width="10" height="12" rx="1" stroke-width="1.2" fill="#e8e4dc"/>
  <line x1="46" y1="38" x2="56" y2="38" stroke-width="0.9"/>
  <!-- lit glowing tip left -->
  <path d="M14 38 Q10 36 8 38 Q10 40 14 40" stroke-width="1.4" fill="#e8e4dc"/>
  <!-- burn hole being made in wall -->
  <rect x="60" y="28" width="12" height="24" rx="1" stroke-width="1.4" fill="#e8e4dc"/>
  <ellipse cx="66" cy="40" rx="4" ry="5" stroke-width="1.3" stroke-dasharray="2,1.5"/><!-- hole -->
  <!-- smoke curling up from tip -->
  <path d="M11 34 Q8 28 12 24 Q14 20 10 16" stroke-width="1.3"/>
  <path d="M13 32 Q10 24 14 18" stroke-width="1.1"/>
  <!-- heat shimmer lines -->
  <line x1="16" y1="48" x2="14" y2="54" stroke-width="1.1" stroke-dasharray="1.5,1.5"/>
  <line x1="22" y1="48" x2="20" y2="54" stroke-width="1.1" stroke-dasharray="1.5,1.5"/>
</svg>