<svg viewBox="0 0 80 80" xmlns="http://www.w3.org/2000/svg" stroke="#1a1a2e" fill="none" stroke-linecap="round" stroke-linejoin="round">
  <!-- rolled/unrolled parchment map -->
  <path d="M12 16 Q12 12 16 12 L64 12 Q68 12 68 16 L68 64 Q68 68 64 68 L16 68 Q12 68 12 64 Z" stroke-width="1.8" fill="#e8e4dc"/>
  <!-- map curl on left side -->
  <path d="M12 16 Q8 20 12 24 Q8 28 12 32" stroke-width="1.2"/>
  <!-- terrain features drawn on map -->
  <path d="M22 28 Q26 22 30 26 Q34 22 38 28" stroke-width="1.3"/><!-- mountains -->
  <path d="M44 28 Q50 24 56 28 Q54 34 48 34 Q44 32 44 28 Z" stroke-width="1.1" fill="#e8e4dc"/><!-- forest -->
  <!-- river drawn in -->
  <path d="M20 44 Q30 40 38 46 Q46 52 56 48" stroke-width="1.4"/>
  <!-- glowing pen/quill adding a feature -->
  <path d="M54 16 L68 8 L66 14 L62 12 Z" stroke-width="1.3" fill="#e8e4dc"/>
  <line x1="54" y1="16" x2="46" y2="36" stroke-width="1.4"/>
  <circle cx="46" cy="36" r="2" stroke-width="1.2" fill="#e8e4dc"/>
  <!-- new feature being drawn (dotted) -->
  <path d="M46 36 Q42 42 44 48 Q48 54 52 52" stroke-width="1.2" stroke-dasharray="2,2"/>
</svg>