<svg viewBox="0 0 80 80" xmlns="http://www.w3.org/2000/svg" stroke="#1a1a2e" fill="none" stroke-linecap="round" stroke-linejoin="round">
  <!-- wine glass bowl -->
  <path d="M22 16 Q18 30 24 40 Q30 48 40 48 Q50 48 56 40 Q62 30 58 16 Z" stroke-width="1.8" fill="#e8e4dc"/>
  <!-- stem -->
  <line x1="40" y1="48" x2="40" y2="64" stroke-width="1.8"/>
  <!-- base -->
  <line x1="28" y1="64" x2="52" y2="64" stroke-width="2"/>
  <!-- shattering on right side -->
  <path d="M56 26 L62 20 M58 32 L66 28 M56 38 L64 38" stroke-width="1.3"/>
  <!-- crack lines -->
  <path d="M54 22 L60 16 L64 22 L58 28 L62 34" stroke-width="1.2"/>
  <!-- musical note suggesting singing -->
  <path d="M14 18 Q16 12 20 14 L20 24" stroke-width="1.4"/>
  <circle cx="20" cy="25" r="2.5" stroke-width="1.2" fill="#e8e4dc"/>
  <!-- shards flying right -->
  <line x1="62" y1="22" x2="68" y2="18" stroke-width="1.1"/>
  <line x1="66" y1="28" x2="72" y2="26" stroke-width="1.1"/>
</svg>