<svg viewBox="0 0 80 80" xmlns="http://www.w3.org/2000/svg" stroke="#1a1a2e" fill="none" stroke-linecap="round" stroke-linejoin="round">
  <!-- wig base -->
  <path d="M14 70 Q10 50 16 36 Q22 22 40 20 Q58 22 64 36 Q70 50 66 70 Z" stroke-width="1.8" fill="#e8e4dc"/>
  <!-- wig curls left -->
  <path d="M14 60 Q8 54 12 48 Q16 44 14 38" stroke-width="1.4"/>
  <path d="M16 66 Q8 60 10 52" stroke-width="1.3"/>
  <!-- wig curls right -->
  <path d="M66 60 Q72 54 68 48 Q64 44 66 38" stroke-width="1.4"/>
  <path d="M64 66 Q72 60 70 52" stroke-width="1.3"/>
  <!-- top voluminous curls -->
  <path d="M26 28 Q24 18 32 16 Q36 14 40 18" stroke-width="1.3"/>
  <path d="M54 28 Q56 18 48 16 Q44 14 40 18" stroke-width="1.3"/>
  <!-- powder cloud dots -->
  <circle cx="20" cy="30" r="1.5" fill="#1a1a2e" stroke="none" opacity="0.4"/>
  <circle cx="60" cy="30" r="1.5" fill="#1a1a2e" stroke="none" opacity="0.4"/>
  <circle cx="40" cy="14" r="1.5" fill="#1a1a2e" stroke="none" opacity="0.4"/>
  <circle cx="30" cy="20" r="1" fill="#1a1a2e" stroke="none" opacity="0.4"/>
  <circle cx="50" cy="20" r="1" fill="#1a1a2e" stroke="none" opacity="0.4"/>
</svg>