<svg viewBox="0 0 80 80" xmlns="http://www.w3.org/2000/svg" stroke="#1a1a2e" fill="none" stroke-linecap="round" stroke-linejoin="round">
  <!-- face -->
  <ellipse cx="40" cy="30" rx="18" ry="20" stroke-width="1.6" fill="#e8e4dc"/>
  <!-- large fake cotton beard (fluffy outline) -->
  <path d="M22 40 Q16 50 18 62 Q24 74 40 76 Q56 74 62 62 Q64 50 58 40" stroke-width="1.8" fill="#e8e4dc"/>
  <!-- fluffy cotton texture -->
  <path d="M22 48 Q18 50 20 54 Q24 52 22 56 Q26 54 24 58" stroke-width="1.1"/>
  <path d="M58 48 Q62 50 60 54 Q56 52 58 56 Q54 54 56 58" stroke-width="1.1"/>
  <path d="M34 70 Q38 74 40 76 Q42 74 46 70" stroke-width="1.1"/>
  <!-- elderly wrinkles on forehead -->
  <path d="M28 22 Q32 20 36 22" stroke-width="1.1"/>
  <path d="M44 22 Q48 20 52 22" stroke-width="1.1"/>
  <!-- age lines by eyes -->
  <path d="M22 30 Q20 32 22 34" stroke-width="1"/>
  <path d="M58 30 Q60 32 58 34" stroke-width="1"/>
  <!-- elastic strap -->
  <path d="M22 40 Q12 34 14 26 Q16 20 24 22" stroke-width="1.2" stroke-dasharray="2,2"/>
  <path d="M58 40 Q68 34 66 26 Q64 20 56 22" stroke-width="1.2" stroke-dasharray="2,2"/>
</svg>