<svg viewBox="0 0 80 80" xmlns="http://www.w3.org/2000/svg" stroke="#1a1a2e" fill="none" stroke-linecap="round" stroke-linejoin="round">
  <!-- handkerchief square -->
  <rect x="18" y="18" width="44" height="44" rx="3" stroke-width="1.8" fill="#e8e4dc"/>
  <!-- lace edge detail -->
  <path d="M18 18 Q21 14 24 18 Q27 14 30 18 Q33 14 36 18 Q39 14 42 18 Q45 14 48 18 Q51 14 54 18 Q57 14 60 18 Q63 14 62 18" stroke-width="1.1"/>
  <!-- nose blowing cone coming from bottom -->
  <path d="M28 62 L20 76 M40 62 L40 76 M52 62 L60 76" stroke-width="1.3"/>
  <!-- acid drip circles eating metal shape -->
  <circle cx="58" cy="46" r="3" stroke-width="1.3" stroke-dasharray="2,1"/>
  <circle cx="62" cy="52" r="2" stroke-width="1.3" stroke-dasharray="2,1"/>
  <path d="M56 56 Q64 56 66 62 Q60 66 56 62 Z" stroke-width="1.2" stroke-dasharray="1.5,1.5"/>
</svg>