<svg viewBox="0 0 80 80" xmlns="http://www.w3.org/2000/svg" stroke="#1a1a2e" fill="none" stroke-linecap="round" stroke-linejoin="round">
  <!-- glove shape -->
  <path d="M28 68 L28 36 Q28 30 34 30 L34 22 Q34 18 38 18 Q42 18 42 22 L42 30 L46 30 Q50 30 50 34 L50 36 L52 36 Q56 36 56 40 L56 44 Q56 46 52 46 L50 46 L50 68 Z" stroke-width="1.8" fill="#e8e4dc"/>
  <!-- finger details -->
  <line x1="38" y1="18" x2="38" y2="30" stroke-width="1.2"/>
  <line x1="42" y1="22" x2="50" y2="30" stroke-width="1.2"/>
  <!-- heart projectile -->
  <path d="M62 28 C62 24 56 24 56 28 C56 24 50 24 50 28 C50 33 56 37 56 37 C56 37 62 33 62 28 Z" stroke-width="1.6" fill="none"/>
  <!-- motion lines -->
  <line x1="58" y1="32" x2="64" y2="36" stroke-width="1.1" stroke-dasharray="2,2"/>
  <line x1="60" y1="29" x2="67" y2="30" stroke-width="1.1" stroke-dasharray="2,2"/>
</svg>