<svg viewBox="0 0 80 80" xmlns="http://www.w3.org/2000/svg" stroke="#1a1a2e" fill="none" stroke-linecap="round" stroke-linejoin="round">
  <!-- face oval -->
  <ellipse cx="40" cy="36" rx="20" ry="24" stroke-width="1.6" fill="#e8e4dc"/>
  <!-- eyes -->
  <ellipse cx="33" cy="30" rx="3" ry="2" stroke-width="1.4"/>
  <ellipse cx="47" cy="30" rx="3" ry="2" stroke-width="1.4"/>
  <!-- enormous curly moustache -->
  <path d="M20 46 C14 40 10 50 20 50 C26 50 30 46 40 46 C50 46 54 50 60 50 C70 50 66 40 60 46" stroke-width="2.2"/>
  <!-- moustache curls holding tiny sword + wand -->
  <path d="M20 50 C16 54 16 62 22 60" stroke-width="1.6"/>
  <line x1="16" y1="58" x2="10" y2="70" stroke-width="1.6"/>
  <path d="M60 50 C64 54 64 62 58 60" stroke-width="1.6"/>
  <!-- tiny jar of wax -->
  <rect x="34" y="64" width="12" height="8" rx="2" stroke-width="1.4" fill="#e8e4dc"/>
  <line x1="34" y1="67" x2="46" y2="67" stroke-width="1.1"/>
</svg>