<svg viewBox="0 0 80 80" xmlns="http://www.w3.org/2000/svg" stroke="#1a1a2e" fill="none" stroke-linecap="round" stroke-linejoin="round">
  <!-- pillow -->
  <rect x="12" y="46" width="56" height="28" rx="8" stroke-width="1.8" fill="#e8e4dc"/>
  <!-- pillow seams -->
  <path d="M16 50 Q40 56 64 50" stroke-width="1.1"/>
  <path d="M16 70 Q40 64 64 70" stroke-width="1.1"/>
  <!-- zipper line on side -->
  <line x1="12" y1="56" x2="12" y2="64" stroke-width="2.2"/>
  <line x1="10" y1="55" x2="14" y2="55" stroke-width="1.4"/>
  <line x1="10" y1="65" x2="14" y2="65" stroke-width="1.4"/>
  <!-- dream cloud above -->
  <path d="M24 38 Q28 30 36 32 Q38 24 48 26 Q56 24 58 32 Q64 32 64 38 Q64 44 56 44 L28 44 Q20 44 24 38 Z" stroke-width="1.4" fill="#e8e4dc"/>
  <!-- dream symbol in cloud (stars) -->
  <line x1="32" y1="38" x2="36" y2="34" stroke-width="1.1"/>
  <line x1="36" y1="34" x2="40" y2="38" stroke-width="1.1"/>
  <line x1="34" y1="36" x2="38" y2="36" stroke-width="1.1"/>
  <line x1="48" y1="36" x2="50" y2="32" stroke-width="1.1"/>
  <line x1="50" y1="32" x2="52" y2="36" stroke-width="1.1"/>
</svg>