<svg viewBox="0 0 80 80" xmlns="http://www.w3.org/2000/svg" stroke="#1a1a2e" fill="none" stroke-linecap="round" stroke-linejoin="round">
  <!-- lamp body -->
  <path d="M30 50 Q24 40 28 28 Q32 18 40 16 Q48 18 52 28 Q56 40 50 50 Z" stroke-width="1.8" fill="#e8e4dc"/>
  <!-- lamp cap -->
  <path d="M28 50 Q34 56 40 56 Q46 56 52 50 Z" stroke-width="1.6" fill="#e8e4dc"/>
  <!-- handle top -->
  <path d="M36 16 Q40 10 44 16" stroke-width="1.6"/>
  <!-- wick/flame -->
  <line x1="40" y1="50" x2="40" y2="42" stroke-width="1.3"/>
  <path d="M38 42 Q40 38 42 42" stroke-width="1.4" fill="#e8e4dc"/>
  <!-- poison skull in light pool -->
  <circle cx="40" cy="66" r="6" stroke-width="1.3" fill="#e8e4dc"/>
  <circle cx="37.5" cy="65" r="1" fill="#1a1a2e" stroke="none"/>
  <circle cx="42.5" cy="65" r="1" fill="#1a1a2e" stroke="none"/>
  <path d="M38 68 L39 70 L41 70 L42 68" stroke-width="1.1"/>
  <!-- poison rays -->
  <line x1="28" y1="62" x2="24" y2="58" stroke-width="1.1" stroke-dasharray="1.5,1.5"/>
  <line x1="52" y1="62" x2="56" y2="58" stroke-width="1.1" stroke-dasharray="1.5,1.5"/>
</svg>