<svg viewBox="0 0 80 80" xmlns="http://www.w3.org/2000/svg" stroke="#1a1a2e" fill="none" stroke-linecap="round" stroke-linejoin="round">
  <!-- shoe / boot -->
  <path d="M14 56 Q14 44 22 42 L40 42 Q50 42 56 46 Q64 50 66 56 L66 62 Q60 66 46 66 L20 66 Q14 64 14 56 Z" stroke-width="1.8" fill="#e8e4dc"/>
  <!-- shoe sole -->
  <path d="M14 60 Q14 66 22 68 L54 68 Q66 68 66 62" stroke-width="1.4"/>
  <!-- lace details -->
  <line x1="28" y1="42" x2="28" y2="36" stroke-width="1.2"/>
  <line x1="36" y1="42" x2="36" y2="34" stroke-width="1.2"/>
  <line x1="44" y1="42" x2="44" y2="34" stroke-width="1.2"/>
  <line x1="26" y1="36" x2="46" y2="34" stroke-width="1.1"/>
  <!-- walking on water lines -->
  <path d="M10 72 Q22 68 34 72 Q46 76 58 72 Q66 70 70 72" stroke-width="1.4"/>
  <path d="M8 76 Q20 72 32 76 Q44 80 56 76" stroke-width="1.1"/>
  <!-- wax tin -->
  <ellipse cx="62" cy="30" rx="10" ry="6" stroke-width="1.4" fill="#e8e4dc"/>
  <rect x="52" y="30" width="20" height="10" rx="1" stroke-width="1.2" fill="#e8e4dc"/>
  <ellipse cx="62" cy="40" rx="10" ry="3" stroke-width="1.2" fill="#e8e4dc"/>
</svg>