<svg viewBox="0 0 80 80" xmlns="http://www.w3.org/2000/svg" stroke="#1a1a2e" fill="none" stroke-linecap="round" stroke-linejoin="round">
  <!-- crown band -->
  <path d="M16 52 L16 44 L24 32 L32 44 L40 28 L48 44 L56 32 L64 44 L64 52 Z" stroke-width="1.8" fill="#e8e4dc"/>
  <!-- chandelier arms branching up -->
  <line x1="40" y1="28" x2="40" y2="18" stroke-width="1.4"/>
  <line x1="40" y1="18" x2="28" y2="22" stroke-width="1.3"/>
  <line x1="40" y1="18" x2="52" y2="22" stroke-width="1.3"/>
  <line x1="40" y1="18" x2="40" y2="12" stroke-width="1.3"/>
  <!-- candles on arms -->
  <rect x="26" y="18" width="4" height="6" rx="1" stroke-width="1.1" fill="#e8e4dc"/>
  <path d="M28 18 Q28 14 28 14" stroke-width="1.2"/><!-- flame left -->
  <rect x="50" y="18" width="4" height="6" rx="1" stroke-width="1.1" fill="#e8e4dc"/>
  <path d="M52 18 Q52 14 52 14" stroke-width="1.2"/><!-- flame right -->
  <rect x="38" y="8" width="4" height="5" rx="1" stroke-width="1.1" fill="#e8e4dc"/>
  <!-- flame at top -->
  <path d="M40 8 Q40 4 40 4" stroke-width="1.2"/>
  <!-- incense smoke wisps from base -->
  <path d="M22 52 Q18 56 20 62 Q22 58 24 62" stroke-width="1.1"/>
  <path d="M58 52 Q62 56 60 62 Q58 58 56 62" stroke-width="1.1"/>
</svg>