<svg viewBox="0 0 80 80" xmlns="http://www.w3.org/2000/svg" stroke="#1a1a2e" fill="none" stroke-linecap="round" stroke-linejoin="round">
  <!-- left ear -->
  <path d="M18 26 Q12 32 12 40 Q12 50 18 56 Q22 60 24 56 Q22 50 24 44 Q26 38 24 32 Z" stroke-width="1.6" fill="#e8e4dc"/>
  <!-- right ear -->
  <path d="M62 26 Q68 32 68 40 Q68 50 62 56 Q58 60 56 56 Q58 50 56 44 Q54 38 56 32 Z" stroke-width="1.6" fill="#e8e4dc"/>
  <!-- earplug in left ear -->
  <ellipse cx="20" cy="40" rx="4" ry="6" stroke-width="1.6" fill="#e8e4dc"/>
  <!-- earplug in right ear -->
  <ellipse cx="60" cy="40" rx="4" ry="6" stroke-width="1.6" fill="#e8e4dc"/>
  <!-- sound waves cancelled on each side (crossed out) -->
  <path d="M30 32 Q34 36 30 40 Q34 44 30 48" stroke-width="1.3"/>
  <line x1="26" y1="30" x2="36" y2="50" stroke-width="1.4"/>
  <line x1="36" y1="30" x2="26" y2="50" stroke-width="1.4"/>
  <path d="M50 32 Q46 36 50 40 Q46 44 50 48" stroke-width="1.3"/>
  <line x1="44" y1="30" x2="54" y2="50" stroke-width="1.4"/>
  <line x1="54" y1="30" x2="44" y2="50" stroke-width="1.4"/>
</svg>