<svg viewBox="0 0 80 80" xmlns="http://www.w3.org/2000/svg" stroke="#1a1a2e" fill="none" stroke-linecap="round" stroke-linejoin="round">
  <!-- laurel wreath shape -->
  <path d="M16 40 Q14 24 22 16 Q30 8 40 8 Q50 8 58 16 Q66 24 64 40" stroke-width="1.6"/>
  <path d="M16 40 Q18 52 26 58 Q34 64 40 64 Q46 64 54 58 Q62 52 64 40" stroke-width="1.6"/>
  <!-- left leaves -->
  <path d="M16 40 Q12 34 14 28 Q18 32 16 38" stroke-width="1.3" fill="#e8e4dc"/>
  <path d="M18 30 Q16 24 18 18 Q22 22 20 28" stroke-width="1.3" fill="#e8e4dc"/>
  <path d="M22 20 Q22 14 26 10 Q28 16 26 20" stroke-width="1.3" fill="#e8e4dc"/>
  <!-- right leaves mirror -->
  <path d="M64 40 Q68 34 66 28 Q62 32 64 38" stroke-width="1.3" fill="#e8e4dc"/>
  <path d="M62 30 Q64 24 62 18 Q58 22 60 28" stroke-width="1.3" fill="#e8e4dc"/>
  <path d="M58 20 Q58 14 54 10 Q52 16 54 20" stroke-width="1.3" fill="#e8e4dc"/>
  <!-- leaves falling off bottom (shrivelled) -->
  <path d="M30 60 Q28 66 26 70" stroke-width="1.1" stroke-dasharray="2,1.5"/>
  <path d="M50 60 Q52 66 54 70" stroke-width="1.1" stroke-dasharray="2,1.5"/>
  <!-- trophy cup in centre -->
  <path d="M32 44 Q32 36 40 34 Q48 36 48 44 L46 52 L34 52 Z" stroke-width="1.3" fill="#e8e4dc"/>
  <line x1="34" y1="52" x2="46" y2="52" stroke-width="1.4"/>
  <line x1="37" y1="52" x2="37" y2="58" stroke-width="1.2"/>
  <line x1="43" y1="52" x2="43" y2="58" stroke-width="1.2"/>
  <line x1="33" y1="58" x2="47" y2="58" stroke-width="1.4"/>
</svg>