<svg viewBox="0 0 80 80" xmlns="http://www.w3.org/2000/svg" stroke="#1a1a2e" fill="none" stroke-linecap="round" stroke-linejoin="round">
  <!-- bronze armour breastplate shape -->
  <path d="M16 20 Q16 12 40 10 Q64 12 64 20 L66 54 Q66 62 40 66 Q14 62 14 54 Z" stroke-width="1.8" fill="#e8e4dc"/>
  <!-- patina texture lines -->
  <path d="M24 24 Q32 20 40 20 Q48 20 56 24" stroke-width="1"/>
  <path d="M22 34 Q32 30 40 30 Q48 30 58 34" stroke-width="1"/>
  <!-- ivy vines growing across armour -->
  <path d="M16 38 Q24 32 32 38 Q36 42 28 46 Q20 50 18 56" stroke-width="1.4"/>
  <path d="M64 38 Q56 32 48 38 Q44 42 52 46 Q60 50 62 56" stroke-width="1.4"/>
  <!-- ivy leaves -->
  <path d="M24 34 Q22 30 26 28 Q28 32 24 34" stroke-width="1.2" fill="#e8e4dc"/>
  <path d="M56 34 Q58 30 54 28 Q52 32 56 34" stroke-width="1.2" fill="#e8e4dc"/>
  <path d="M28 48 Q24 46 26 42 Q30 44 28 48" stroke-width="1.2" fill="#e8e4dc"/>
  <!-- sword/projectile being ensnared by vines -->
  <line x1="36" y1="60" x2="52" y2="44" stroke-width="1.6"/>
  <path d="M52 44 L58 38 L56 44 L60 46 Z" stroke-width="1.3" fill="#e8e4dc"/>
  <!-- vine wrapping around sword -->
  <path d="M38 58 Q44 54 50 48 Q48 52 44 56 Q40 60 38 58 Z" stroke-width="1.2"/>
</svg>