<svg viewBox="0 0 80 80" xmlns="http://www.w3.org/2000/svg" stroke="#1a1a2e" fill="none" stroke-linecap="round" stroke-linejoin="round">
  <!-- balloon / bubble -->
  <ellipse cx="40" cy="28" rx="22" ry="20" stroke-width="1.8" fill="#e8e4dc"/>
  <!-- balloon ribs -->
  <path d="M40 8 Q34 18 34 28 Q34 38 40 48" stroke-width="1.1"/>
  <path d="M40 8 Q46 18 46 28 Q46 38 40 48" stroke-width="1.1"/>
  <path d="M18 28 Q28 22 40 22 Q52 22 62 28" stroke-width="1.1"/>
  <!-- basket -->
  <rect x="32" y="48" width="16" height="10" rx="2" stroke-width="1.6" fill="#e8e4dc"/>
  <line x1="32" y1="48" x2="36" y2="48" stroke-width="1.1"/>
  <!-- ropes -->
  <line x1="34" y1="48" x2="32" y2="52" stroke-width="1.1"/>
  <line x1="46" y1="48" x2="48" y2="52" stroke-width="1.1"/>
  <!-- explosion burst lines at bottom -->
  <line x1="40" y1="60" x2="38" y2="68" stroke-width="1.3"/>
  <line x1="40" y1="60" x2="42" y2="68" stroke-width="1.3"/>
  <line x1="40" y1="60" x2="30" y2="66" stroke-width="1.3"/>
  <line x1="40" y1="60" x2="50" y2="66" stroke-width="1.3"/>
</svg>