<svg viewBox="0 0 80 80" xmlns="http://www.w3.org/2000/svg" stroke="#1a1a2e" fill="none" stroke-linecap="round" stroke-linejoin="round">
  <!-- pepper mill body -->
  <path d="M28 22 Q26 18 28 14 Q34 10 40 10 Q46 10 52 14 Q54 18 52 22 L50 52 Q50 60 40 62 Q30 60 30 52 Z" stroke-width="1.8" fill="#e8e4dc"/>
  <!-- grinding top mechanism -->
  <ellipse cx="40" cy="22" rx="12" ry="5" stroke-width="1.4" fill="#e8e4dc"/>
  <!-- turn knob at top -->
  <line x1="34" y1="12" x2="46" y2="12" stroke-width="1.6"/>
  <!-- wood grain rings on body -->
  <path d="M32 30 Q40 28 48 30" stroke-width="0.9"/>
  <path d="M32 38 Q40 36 48 38" stroke-width="0.9"/>
  <path d="M32 46 Q40 44 48 46" stroke-width="0.9"/>
  <!-- high-pressure spray from bottom -->
  <path d="M34 62 L24 72 M40 64 L38 76 M46 62 L56 72" stroke-width="1.4"/>
  <path d="M22 72 L18 76 M36 76 L34 80 M58 72 L62 76" stroke-width="1.2"/>
  <!-- pepper dots in spray -->
  <circle cx="28" cy="68" r="1" fill="#1a1a2e" stroke="none"/>
  <circle cx="42" cy="70" r="1" fill="#1a1a2e" stroke="none"/>
  <circle cx="50" cy="68" r="1" fill="#1a1a2e" stroke="none"/>
</svg>