<svg viewBox="0 0 80 80" xmlns="http://www.w3.org/2000/svg" stroke="#1a1a2e" fill="none" stroke-linecap="round" stroke-linejoin="round">
  <!-- left lens -->
  <circle cx="26" cy="40" r="14" stroke-width="1.8" fill="#e8e4dc"/>
  <!-- right lens -->
  <circle cx="54" cy="40" r="14" stroke-width="1.8" fill="#e8e4dc"/>
  <!-- bridge -->
  <line x1="40" y1="40" x2="40" y2="40" stroke-width="1.8"/>
  <path d="M40 38 Q40 34 40 38" stroke-width="1.8"/>
  <path d="M38 39 Q40 36 42 39" stroke-width="1.8"/>
  <!-- temples -->
  <line x1="12" y1="38" x2="12" y2="48" stroke-width="1.6"/>
  <line x1="12" y1="38" x2="12" y2="38" stroke-width="1.6"/>
  <path d="M12 38 Q8 38 8 42 Q8 46 12 46" stroke-width="1.6"/>
  <path d="M68 38 Q72 38 72 42 Q72 46 68 46" stroke-width="1.6"/>
  <!-- rose petals inside left lens -->
  <circle cx="26" cy="40" r="6" stroke-width="1.2"/>
  <path d="M20 40 Q23 36 26 34 Q29 36 32 40 Q29 44 26 46 Q23 44 20 40 Z" stroke-width="1.1"/>
  <!-- shield/happy symbol inside right lens -->
  <path d="M54 32 Q60 34 60 40 Q60 46 54 50 Q48 46 48 40 Q48 34 54 32 Z" stroke-width="1.1"/>
  <line x1="50" y1="40" x2="53" y2="43" stroke-width="1.2"/>
  <line x1="53" y1="43" x2="58" y2="37" stroke-width="1.2"/>
</svg>