<svg viewBox="0 0 80 80" xmlns="http://www.w3.org/2000/svg" stroke="#1a1a2e" fill="none" stroke-linecap="round" stroke-linejoin="round">
  <!-- cocktail shaker body -->
  <path d="M28 18 L24 52 Q24 60 40 62 Q56 60 56 52 L52 18 Z" stroke-width="1.8" fill="#e8e4dc"/>
  <!-- shaker cap -->
  <path d="M26 18 Q28 12 40 10 Q52 12 54 18 Z" stroke-width="1.6" fill="#e8e4dc"/>
  <!-- shaker lid with strainer holes -->
  <line x1="28" y1="18" x2="52" y2="18" stroke-width="1.4"/>
  <circle cx="34" cy="22" r="1" fill="#1a1a2e" stroke="none"/>
  <circle cx="40" cy="22" r="1" fill="#1a1a2e" stroke="none"/>
  <circle cx="46" cy="22" r="1" fill="#1a1a2e" stroke="none"/>
  <!-- two objects going in (fish + bird) -->
  <!-- fish left -->
  <path d="M10 32 Q14 28 18 32 Q14 36 10 32 Z" stroke-width="1.3" fill="#e8e4dc"/>
  <path d="M10 32 Q6 28 8 32 Q6 36 10 32" stroke-width="1.2"/>
  <!-- bird right -->
  <path d="M62 28 Q68 24 72 28 Q70 32 66 30 Q68 34 64 32 Q62 34 62 30 Z" stroke-width="1.3" fill="#e8e4dc"/>
  <!-- chimera result below shaker -->
  <path d="M34 62 Q26 68 28 74 Q32 76 36 72 Q38 76 40 72 Q42 76 44 72 Q48 76 52 72 Q54 68 46 62" stroke-width="1.4" fill="#e8e4dc"/>
  <!-- fish tail on chimera -->
  <path d="M28 74 Q22 78 24 82" stroke-width="1.2"/>
  <!-- wings on chimera -->
  <path d="M34 66 Q28 60 24 62" stroke-width="1.2"/>
  <path d="M46 66 Q52 60 56 62" stroke-width="1.2"/>
</svg>