<svg viewBox="0 0 80 80" xmlns="http://www.w3.org/2000/svg" stroke="#1a1a2e" fill="none" stroke-linecap="round" stroke-linejoin="round">
  <!-- staff -->
  <line x1="40" y1="74" x2="40" y2="34" stroke-width="2.2"/>
  <!-- skull top -->
  <circle cx="40" cy="26" r="12" stroke-width="1.8" fill="#e8e4dc"/>
  <!-- skull eye sockets -->
  <circle cx="35" cy="24" r="3" stroke-width="1.3"/>
  <circle cx="45" cy="24" r="3" stroke-width="1.3"/>
  <!-- skull nose cavity -->
  <path d="M39 28 Q40 30 41 28" stroke-width="1.2"/>
  <!-- grinning teeth -->
  <path d="M32 32 L32 34 L34 34 L34 32 L36 32 L36 34 L38 34 L38 32 L40 32 L40 34 L42 34 L42 32 L44 32 L44 34 L46 34 L46 32 L48 32" stroke-width="1.1"/>
  <!-- speech bubble with wavy irritating lines -->
  <path d="M52 14 Q58 10 64 14 Q68 18 64 24 Q62 28 56 28 L52 32 L54 26 Q48 24 48 18 Q48 14 52 14 Z" stroke-width="1.3" fill="#e8e4dc"/>
  <!-- annoying text wavy lines in bubble -->
  <path d="M52 18 Q55 16 58 18 Q61 16 64 18" stroke-width="0.9"/>
  <path d="M52 22 Q55 20 58 22 Q61 20 64 22" stroke-width="0.9"/>
</svg>