<svg viewBox="0 0 80 80" xmlns="http://www.w3.org/2000/svg" stroke="#1a1a2e" fill="none" stroke-linecap="round" stroke-linejoin="round">
  <!-- stick -->
  <line x1="40" y1="72" x2="40" y2="36" stroke-width="2.4"/>
  <!-- stone (irregular blob) -->
  <path d="M28 24 Q24 16 32 12 Q40 8 48 12 Q56 16 54 24 Q56 32 48 36 Q40 38 32 34 Q24 30 28 24 Z" stroke-width="1.8" fill="#e8e4dc"/>
  <!-- word impact stars radiating -->
  <line x1="56" y1="14" x2="62" y2="10" stroke-width="1.4"/>
  <line x1="60" y1="20" x2="67" y2="18" stroke-width="1.4"/>
  <line x1="58" y1="27" x2="65" y2="27" stroke-width="1.4"/>
  <!-- speech bubble fragment -->
  <path d="M58 10 Q66 6 68 12 Q70 18 64 20 L58 22 L60 16 Q56 14 58 10 Z" stroke-width="1.3" fill="#e8e4dc"/>
</svg>